<svg xmlns="http://www.w3.org/2000/svg">
	<symbol id="up-arrow" viewBox="0 0 24 24">
		<path d="M13 20h-2V8l-5.5 5.5-1.42-1.42L12 4.16l7.92 7.92-1.42 1.42L13 8v12z"/>
	</symbol>
	<symbol id="star" viewBox="0 0 24 24">
		<path d="M12 17.3l6.2 3.7-1.7-7L22 9.2l-7.2-.6L12 2 9.2 8.6 2 9.2 7.5 14l-1.7 7 6.2-3.7z"/>
	</symbol>
	<symbol id="services" viewBox="0 0 24 24">
		<path d="M21.7 8.7c1.3-1.2.7-2.7 0-3.4l-3-3c-1.3-1.3-2.7-.7-3.4 0L13.6 4H11C9.1 4 8 5 7.4 6.2L3 10.6v4l-.7.7c-1.3 1.3-.7 2.7 0 3.4l3 3c.5.6 1.1.8 1.7.8.7 0 1.3-.4 1.7-.8l2.7-2.7H15c1.7 0 2.6-1 2.9-2.1a2.8 2.8 0 002-2C21.4 14.5 22 13 22 12V9h-.6l.3-.3M20 12c0 .4-.2 1-1 1h-1v1c0 .4-.2 1-1 1h-1v1c0 .4-.2 1-1 1h-4.4l-3.3 3.3c-.3.3-.5.1-.6 0l-3-3c-.3-.3-.1-.5 0-.6L5 15.4v-4l2-2V11c0 1.2.8 3 3 3s3-1.8 3-3h7v1m.3-4.7L18.6 9H11v2c0 .4-.2 1-1 1s-1-.6-1-1V8c0-.5.2-2 2-2h3.4l2.3-2.3c.3-.3.5-.1.6 0l3 3c.3.3.1.5 0 .6z"/>
	</symbol>
	<symbol id="company" viewBox="0 0 24 24">
		<path d="M20 7h-4V5l-2-2h-4L8 5v2H4a2 2 0 00-2 2v5a2 2 0 001 1.7V19c0 1.1.9 2 2 2h14a2 2 0 002-2v-3.3c.6-.3 1-1 1-1.7V9a2 2 0 00-2-2M10 5h4v2h-4V5M4 9h16v5h-5v-3H9v3H4V9m9 6h-2v-2h2v2m6 4H5v-3h4v1h6v-1h4v3z"/>
	</symbol>
	<symbol id="solutions" viewBox="0 0 24 24">
		<path d="M16 3.2c.7-.8 1.6-1.2 2.7-1.2 1 0 1.7.3 2.3 1 .6.7 1 1.4 1 2.3 0 .7-.3 1.5-1 2.5l-2 2.4-3 2.8-3-2.8a18 18 0 01-2-2.4c-.7-1-1-1.8-1-2.5A3 3 0 0111 3c.6-.6 1.4-1 2.3-1 1 0 2 .4 2.7 1.2M22 19v1l-8 2.5-7-2V22H1V11h8l6.1 2.3c1.2.4 1.9 1.5 1.9 2.7h2a3 3 0 013 3M5 20v-7H3v7h2m14.9-1.4a1 1 0 00-.9-.6h-5.3c-.6 0-1.1 0-1.6-.3L9.7 17l.6-2 2.4.8 2.3.2c0-.4-.2-.7-.6-.8L8.6 13H7v5.5l7 2 5.9-2z"/>
	</symbol>
	<svg id="contact" viewBox="0 0 24 24">
		<path d="M20 2a2 2 0 012 2v12a2 2 0 01-2 2H6l-4 4V4c0-1.1.9-2 2-2h16M4 4v13.2L5.2 16H20V4H4m2 3h12v2H6V7m0 4h9v2H6v-2z"/>
	</svg>
	<symbol id="favorite-border" viewBox="0 0 24 24">
		<path d="M19.66 3.99A5.8 5.8 0 0012 5.09a5.78 5.78 0 00-7.66-1.1A5.47 5.47 0 002 8.28c-.14 3.88 3.3 6.99 8.55 11.76l.1.09a2 2 0 002.69-.01l.11-.1c5.25-4.76 8.68-7.87 8.55-11.75a5.47 5.47 0 00-2.34-4.28zM12.1 18.55l-.1.1-.1-.1C7.14 14.24 4 11.39 4 8.5 4 6.5 5.5 5 7.5 5a3.9 3.9 0 013.57 2.36h1.87A3.88 3.88 0 0116.5 5c2 0 3.5 1.5 3.5 3.5 0 2.89-3.14 5.74-7.9 10.05z"/>
	</symbol>
	<symbol id="close" viewBox="0 0 24 24">
		<path fill="none" d="M0 0h24v24H0V0z"/><path d="M18.3 5.7a1 1 0 00-1.4 0L12 10.6 7.1 5.7a1 1 0 10-1.4 1.4l4.9 4.9-4.9 4.9a1 1 0 101.4 1.4l4.9-4.9 4.9 4.9a1 1 0 101.4-1.4L13.4 12l4.9-4.9c.4-.4.4-1 0-1.4z"/>
	</symbol>
	<symbol id="whatsapp" viewBox="0 0 24 24">
		<path d="M12.04 2a9.93 9.93 0 00-8.59 14.86L2.05 22l5.25-1.38A9.91 9.91 0 1012.04 2m.01 1.67a8.23 8.23 0 11-.01 16.48A8.1 8.1 0 017.85 19l-.3-.17-3.12.82.83-3.04-.2-.32a8.26 8.26 0 016.99-12.62M8.53 7.33a.91.91 0 00-.66.31C7.65 7.89 7 8.5 7 9.71c0 1.22.89 2.39 1 2.56.14.17 1.76 2.67 4.25 3.73.59.27 1.05.42 1.41.53.59.19 1.13.16 1.56.1.48-.07 1.46-.6 1.67-1.18.21-.58.21-1.07.15-1.18-.07-.1-.23-.16-.48-.27-.25-.14-1.47-.74-1.69-.82-.23-.08-.37-.12-.56.12-.16.25-.64.81-.78.97-.15.17-.29.19-.53.07-.26-.13-1.06-.39-2-1.23a7.57 7.57 0 01-1.38-1.72c-.12-.24-.01-.39.11-.5.11-.11.27-.29.37-.44.13-.14.17-.25.25-.41.08-.17.04-.31-.02-.43-.06-.11-.56-1.35-.77-1.84-.2-.48-.4-.42-.56-.43l-.47-.01z"/>
	</symbol>
	<symbol id="instagram" viewBox="0 0 24 24">
		<path d="M7.8 2h8.4C19.4 2 22 4.6 22 7.8v8.4a5.8 5.8 0 01-5.8 5.8H7.8A5.8 5.8 0 012 16.2V7.8A5.8 5.8 0 017.8 2m-.2 2A3.6 3.6 0 004 7.6v8.8A3.6 3.6 0 007.6 20h8.8a3.6 3.6 0 003.6-3.6V7.6A3.6 3.6 0 0016.4 4H7.6m9.65 1.5a1.25 1.25 0 011.25 1.25A1.25 1.25 0 0117.25 8 1.25 1.25 0 0116 6.75a1.25 1.25 0 011.25-1.25M12 7a5 5 0 015 5 5 5 0 01-5 5 5 5 0 01-5-5 5 5 0 015-5m0 2a3 3 0 00-3 3 3 3 0 003 3 3 3 0 003-3 3 3 0 00-3-3z"/>
	</symbol>
	<symbol id="linkedin" viewBox="0 0 24 24">
		<path d="M19 3a2 2 0 012 2v14a2 2 0 01-2 2H5a2 2 0 01-2-2V5a2 2 0 012-2h14m-.5 15.5v-5.3a3.26 3.26 0 00-3.26-3.26 2.9 2.9 0 00-2.32 1.3v-1.11h-2.79v8.37h2.79v-4.93c0-.77.62-1.4 1.39-1.4a1.4 1.4 0 011.4 1.4v4.93h2.79M6.88 8.56a1.68 1.68 0 001.68-1.68c0-.93-.75-1.69-1.68-1.69a1.69 1.69 0 00-1.69 1.69c0 .93.76 1.68 1.69 1.68m1.39 9.94v-8.37H5.5v8.37h2.77z"/>
	</symbol>
	<symbol id="facebook" viewBox="0 0 24 24">
		<path d="M12 2.04a10.03 10.03 0 00-1.56 19.92v-7H7.9v-2.9h2.54V9.85c0-2.51 1.49-3.89 3.78-3.89 1.09 0 2.23.19 2.23.19v2.47h-1.26c-1.24 0-1.63.77-1.63 1.56v1.88h2.78l-.45 2.9h-2.33v7a10 10 0 008.44-9.9c0-5.53-4.5-10.02-10-10.02z"/>
	</symbol>
	<symbol id="github" viewBox="0 0 24 24">
		<path d="M12 2A10 10 0 002 12a10 10 0 006.8 9.5c.5 0 .7-.2.7-.5v-1.7C6.7 20 6.1 18 6.1 18c-.4-1.2-1-1.5-1-1.5-1-.6 0-.6 0-.6 1 0 1.5 1 1.5 1 .9 1.6 2.4 1.1 3 .9 0-.7.3-1.1.6-1.4-2.2-.2-4.6-1-4.6-4.9 0-1.1.4-2 1-2.7 0-.3-.4-1.3.2-2.7 0 0 .8-.2 2.7 1a9.4 9.4 0 015 0c2-1.2 2.8-1 2.8-1 .5 1.4.1 2.4 0 2.7.7.7 1 1.6 1 2.7 0 3.8-2.3 4.7-4.5 5 .4.2.7.8.7 1.8V21c0 .3.2.6.7.5 4-1.3 6.8-5 6.8-9.5A10 10 0 0012 2z"/>
	</symbol>
	<symbol id="plus-circle" viewBox="0 0 24 24">
		<path d="M12 20a8 8 0 110-16 8 8 0 010 16m0-18A10 10 0 002 12a10 10 0 0010 10 10 10 0 0010-10A10 10 0 0012 2m1 5h-2v4H7v2h4v4h2v-4h4v-2h-4V7z"/>
	</symbol>
	<symbol id="code" viewBox="0 0 512 512">
		<path fill="#008CB5" d="M486 306L352 172v55c0 3 4 4 5 1a14 14 0 0122-3l75 72c3 4 3 8 0 11L344 421c-5 5-5 14 0 20l7 7 135-138v-4zM30 194l134 134v-55c0-3-4-4-5-1a14 14 0 01-22 3l-75-73c-3-3-3-8 0-11L172 79c6-5 5-14 0-20l-7-7L30 190v4zm225 167h1l-29 88h-34c-15 0-32-3-27-18l19-55c3-9 12-16 22-16 9 0 17-5 19-14l81-251c6-19 24-31 44-31l-96 297z"/><path d="M489 322L363 448c-2 2-4 2-6 2s-4 0-6-2c-3-3-3-8 0-11l126-126 1-3-1-2-124-124v45c0 5-3 8-8 8s-8-3-8-8v-65a8 8 0 0114-5l137 137c8 8 8 21 1 28zm-97-14l-2 4-38 38c-3 3-3 8 0 11 1 2 3 3 6 3 2 0 4-1 5-3l38-38c9-8 9-21 1-29l-43-43c-3-4-9-4-12 0-3 3-3 8 0 11l43 43 2 3zm-221 38l3-1c3-1 5-4 5-8v-64c0-5-4-8-8-8s-8 3-8 8v45L39 194c-2-1-2-4 0-5L165 63c3-3 3-8 0-11-4-3-9-3-12 0L28 178a20 20 0 000 27l137 138 6 3zm-45-158l38-38c3-3 3-9 0-12s-8-3-11 0l-38 39c-8 8-8 21 0 29l43 43c1 2 3 2 5 2l6-2c3-3 3-8 0-11l-43-43c-2-2-2-5 0-7zM354 56c-4-1-9 1-10 5L221 441h-50L291 72h28c4 0 8-4 8-8s-4-8-8-8h-34c-4 0-7 2-8 5L153 447c-1 2-1 5 1 7s3 3 6 3h67c3 0 6-2 7-5L359 66c1-4-1-8-5-10zM360 111c0-4 4-8 8-8h58c4 0 8 4 8 8s-4 8-8 8h-58c-4 0-8-3-8-8zM113 354c0-4-3-8-8-8H18c-4 0-8 4-8 8s4 8 8 8h87c5 0 8-3 8-8zm21 23H77c-5 0-8 4-8 8s3 8 8 8h57c4 0 8-3 8-8s-4-8-8-8zm348-246H355c-5 0-8 3-8 8s3 8 8 8h127c4 0 8-4 8-8s-4-8-8-8zM21 52a26 26 0 1153 0 26 26 0 01-53 0zm16 0c0 6 5 10 11 10s10-4 10-10-5-10-10-10-11 4-11 10zm275 388h-4v-4c0-4-3-8-8-8s-8 4-8 8v4h-4c-4 0-8 3-8 8s4 8 8 8h4v4c0 4 4 8 8 8s8-4 8-8v-4h4c4 0 8-4 8-8s-4-8-8-8z"/><path fill="#008CB5" d="M424 474l60-61v61h-60z"/><path fill="#008CB5" d="M489 18v63h-35V18h35z"/>
	</symbol>
	<symbol id="consult" viewBox="0 0 512 512">
		<g fill="#008CB5"><path d="M409 279c-6 54-54 74-74 80 9 0 18-2 24-6 22-13 0 16 0 16l-34 14-36-22h2l-2-9s17 5 36 6V157s-3-6 0-8 84 10 84 10 8 49 0 120z"/><path d="M343 483h-35l12-32-23-22 11-19-51-23v-35l68 31 47-22 21-9v29l17 9c48 21 77 35 82 93H343zM192 179H18c-4 0-4 3-4 8v94h113l49 54v-54h24v-94c0-5-3-8-8-8z"/></g><path d="M499 452c-7-19-24-46-62-61-14-6-26-11-36-17v-22c0-3-1-5-3-7h-8l-3 1 6-6c14-14 22-31 27-43 3-8 4-17 4-25V150a8 8 0 00-11-8c-15 6-30 2-45-2-21-5-45-11-70 7a8 8 0 109 13c19-14 37-9 57-4 14 3 29 7 44 4v112c0 6-1 13-3 19-8 22-29 59-76 59-46 0-67-34-75-54-2-7-4-14-4-22V160c0-16 10-27 18-34 17-15 45-23 71-19l25 6c19 6 39 11 65 1a8 8 0 10-6-15c-21 8-36 4-55-1l-27-7c-30-4-63 4-84 23a62 62 0 00-23 46v111h-59c-2 0-4 0-5 2l-3 6 1 36-41-42-6-2H26V131h197c4 0 8-4 8-8s-4-8-8-8H18c-4 0-8 3-8 8v156c0 4 4 8 8 8h100l52 54a8 8 0 009 2c3-1 5-4 5-8l-1-48h52l4 15c5 11 13 27 27 41l16 11-21-9h-8c-2 2-3 4-3 7v27l-27 12c-38 15-55 42-62 61-9 21-8 39-8 40 0 4 4 7 8 7h1c4 0 7-4 7-8 0-1-2-60 60-85l25-11 43 19-7 11c-2 4-1 8 2 10l18 18-9 27-1 3H187c-4 0-8 4-8 8s4 8 8 8h312c4 0 7-3 8-7 0-1 0-19-8-40zm-158-50h-8v-14l52-24v18l-44 20zm-12-35l15-2-19 9-26-12c9 3 19 5 30 5zm-63-3l51 24v14h-7l-44-20v-18zm47 54h25l6 10-18 16v1h-1l-18-17 6-10zm11 46h3l1-1v1l4 11h-13l4-11h1zm27 19v-3l-10-27 18-18c3-2 4-6 2-10l-7-11 43-19 3-3 31 14a90 90 0 0159 77H351zM195 243c0 4-4 8-8 8H49c-4 0-8-4-8-8s4-8 8-8h138c4 0 8 3 8 8zm0-40c0 4-4 8-8 8H49c-4 0-8-4-8-8s4-8 8-8h138c4 0 8 3 8 8zm0-40c0 4-4 8-8 8H49c-4 0-8-4-8-8s4-8 8-8h138c4 0 8 3 8 8z"/><g fill="#008CB5"><path d="M417 33V19h14v14h-14zM291 33V19h102v14H291z"/></g><path d="M44 421c-4 0-8-3-8-8s4-8 8-8c12 0 21-9 21-20 0-5 4-8 8-8s8 3 8 8c0 20-16 36-37 36zm87-8c0-4-4-8-8-8-11 0-21-9-21-20 0-5-3-8-8-8s-8 3-8 8c0 20 17 36 37 36 4 0 8-3 8-8zm-29 50c0-11 10-20 21-20 4 0 8-4 8-8s-4-8-8-8c-20 0-37 16-37 36 0 5 4 8 8 8s8-3 8-8zm-21 0c0-20-16-36-37-36-4 0-8 3-8 8s4 8 8 8c12 0 21 9 21 20 0 5 4 8 8 8s8-3 8-8zm402-326c0-5-4-9-9-9s-9 4-9 9 4 9 9 9 9-4 9-9zm0 30c0-5-4-9-9-9s-9 4-9 9 4 9 9 9 9-4 9-9zm0 30c0-5-4-9-9-9s-9 4-9 9 4 9 9 9 9-4 9-9zm-1-91V19c0-5-4-8-8-8s-8 3-8 8v87c0 5 4 8 8 8s8-3 8-8zm0 208v-87c0-5-4-8-8-8s-8 3-8 8v87c0 5 4 8 8 8s8-3 8-8zM255 68c0-5-4-8-8-8h-90c-5 0-8 3-8 8s3 8 8 8h90c4 0 8-4 8-8zm-75-32c0-5-3-8-8-8h-59c-4 0-8 3-8 8s4 8 8 8h60c4 0 7-4 7-8zM53 68c0-5-4-8-8-8H21c-4 0-8 3-8 8s4 8 8 8h24c4 0 8-4 8-8zM41 80V56c0-5-4-8-8-8s-8 3-8 8v24c0 4 3 8 8 8s8-4 8-8z"/>
	</symbol>
	<symbol id="training" viewBox="0 0 512 512">
		<path fill="#008CB5" d="M99.5 435.9v46.3H77v-46.3h22.5zM54.1 435.9v46.3H32.6v-46.3h21.5z"/><path d="M287.4 170.3a8 8 0 01-8 8h-108c-4.4 0-8-3.6-8-8s3.6-8 8-8h108a8 8 0 018 8zm-131.6 46.9H69a8 8 0 00-8 8 8 8 0 008 8h86.8a8 8 0 008-8 8 8 0 00-8-8zM101.6 78.1h28.7c4.4 0 8-3.6 8-8s-3.6-8-8-8h-28.7c-4.4 0-8 3.6-8 8s3.6 8 8 8zM44.5 50.3h-3.9v-3.9c0-4.4-3.6-8-8-8s-8 3.6-8 8v3.9h-3.9c-4.4 0-8 3.6-8 8s3.6 8 8 8h3.9v3.9c0 4.4 3.6 8 8 8s8-3.6 8-8v-3.9h3.9c4.4 0 8-3.6 8-8s-3.6-8-8-8zm69.2 79.2a8 8 0 008 8h71.4c4.4 0 8-3.6 8-8s-3.6-8-8-8h-71.4a8 8 0 00-8 8z"/><g fill="#008CB5"><path d="M453.7 155.6a67.4 67.4 0 01-134.7 3.8c3.2-1.1 8-.9 9.6 2.9 9 21.7 24.9 37.7 47.3 41.2 19.1 3 38.7-10.4 44.9-17.5 17.8-20.4 16.1-61.8-33.7-80.7-7.6-2.9-2.9-15.3 5.2-15.4h.3c5 0 9.8.5 14.6 1.4a67.8 67.8 0 0146.5 64.3z"/><path d="M482.2 28.1v395.5c0 12.2-4.9 23.1-12.9 31.1a43.6 43.6 0 01-30.7 12.9 44.6 44.6 0 01-44.3-44.6H165.2a49.3 49.3 0 01-49.3-49.3V365h278.3v-69.5l48.6 29.2a6 6 0 003.2.9c1.3 0 2.5-.4 3.7-1.1 2-1.5 3-4 2.5-6.4l-22.1-110.5s35.3-27.6 19.6-71.4a69.4 69.4 0 00-103.9-39.7H244.2a47.7 47.7 0 01-47.7-47.7V28.1h285.7z"/></g><path d="M490.2 28.1v395.5a51 51 0 01-15.3 36.7 51.2 51.2 0 01-36.7 15.2H159.9a52 52 0 01-51.9-51.9V365a8 8 0 018-8h50.6c4.4 0 8 3.6 8 8s-3.6 8-8 8H124v50.6a36 36 0 0035.9 35.9h240.9l-.5-.5-.8-.9-.8-1-.8-.9-.8-1-.7-.9-.7-1-.7-1-.7-1.1-.6-1-.6-1.1-.6-1-.6-1.2-.5-1.1-.5-1.2-.5-1.1-.5-1.2-.4-1.1a5 5 0 01-.4-1.3l-.4-1.1-.4-1.3-.3-1.1-.3-1.4-.3-1.1-.3-1.4-.2-1.1-.2-1.5-.1-1-.1-1.7-.1-.9-.1-2.6V373H196.5a8 8 0 01-8-8V170.9c0-4.4 3.6-8 8-8s8 3.6 8 8V357h189.8a8 8 0 018 8v58.6a36 36 0 0071.9 0V36.1H204.5v101.3c0 4.4-3.6 8-8 8s-8-3.6-8-8V28.1a8 8 0 018-8h285.7a8 8 0 018 8zM311.5 330.9l.2.2a14.5 14.5 0 0015.4.5l55.8-33.5 55.8 33.5a14.3 14.3 0 0015.4-.5l.2-.2c4.6-3.3 6.8-9 5.7-14.5l-21-105.5a64.8 64.8 0 0021-55.4 8 8 0 10-15.9 1.9 49 49 0 01-17.1 42.7 7.2 7.2 0 00-3.2 2.5 48.5 48.5 0 01-46.7 5.5 8 8 0 00-6 14.8 64.4 64.4 0 0053.6-2.1l19 95.1-56.6-34a8 8 0 00-8.2 0l-56.6 34 21.6-108.1c.5-2.7-.4-5.6-2.4-7.5a61.6 61.6 0 11100.7-62.1 8 8 0 009.9 5.5 8 8 0 005.5-9.9 77.6 77.6 0 10-130.2 75l-21.5 107.5c-1.2 5.6 1 11.3 5.6 14.6z"/>
	</symbol>
	<symbol id="system" viewBox="0 0 512 512">
		<path fill="#008CB5" d="M496.8 369.7H58.2a21 21 0 01-21-21v-178c0-11.8 9.6-21.4 21.4-21.4h438.1v220.4z"/><path d="M363.5 75.8h-215c-4.4 0-8-3.6-8-8s3.6-8 8-8h215c4.4 0 8 3.6 8 8s-3.6 8-8 8zm73.1-22.4c0-4.4-3.6-8-8-8s-8 3.6-8 8c0 11.4-9.3 20.8-20.8 20.8-4.4 0-8 3.6-8 8s3.6 8 8 8a36.9 36.9 0 0036.8-36.8zm50 28.7a8 8 0 00-8-8 20.8 20.8 0 01-20.8-20.8c0-4.4-3.6-8-8-8s-8 3.6-8 8a36.8 36.8 0 0036.8 36.8 8 8 0 008-8zm-28.7 50c0-11.4 9.3-20.8 20.8-20.8 4.4 0 8-3.6 8-8s-3.6-8-8-8a36.8 36.8 0 00-36.8 36.8c0 4.4 3.6 8 8 8s8-3.5 8-8zm-21.3 0a36.8 36.8 0 00-36.8-36.8c-4.4 0-8 3.6-8 8s3.6 8 8 8c11.4 0 20.8 9.3 20.8 20.8 0 4.4 3.6 8 8 8s8-3.5 8-8zM85.8 44a8 8 0 00-8-8H30.2c-4.4 0-8 3.6-8 8s3.6 8 8 8h47.6a8 8 0 008-8zM62 67.8V20.2c0-4.4-3.6-8-8-8s-8 3.6-8 8v47.6c0 4.4 3.6 8 8 8s8-3.6 8-8zm308.5-43.2c0-5-4.1-9-9-9s-9 4.1-9 9 4.1 9 9 9 9-4 9-9zm-40 0c0-5-4.1-9-9-9s-9 4.1-9 9 4.1 9 9 9 9-4 9-9zm-40 0c0-5-4.1-9-9-9s-9 4.1-9 9 4.1 9 9 9 9-4 9-9z"/><path d="M510.4 103.4v322.9a16 16 0 01-16 16H265.9v33.9h178.4c4.4 0 8 3.6 8 8s-3.6 8-8 8H67.8c-4.4 0-8-3.6-8-8s3.6-8 8-8h182.1v-38.8l.1-1.5-.1-1.5a8 8 0 018-8h236.6v-48.6H385.9c-4.4 0-8-3.6-8-8s3.6-8 8-8h108.6V103.4a8 8 0 1115.9 0zM48.8 391.6c5 0 9 4.1 9 9s-4.1 9-9 9-9-4.1-9-9 4-9 9-9zm30 0c5 0 9 4.1 9 9s-4.1 9-9 9-9-4.1-9-9 4-9 9-9zm30 0c5 0 9 4.1 9 9s-4.1 9-9 9-9-4.1-9-9 4-9 9-9zM232 434.3a8 8 0 00-8-8H17.6V111.4h380.5c4.4 0 8-3.6 8-8s-3.6-8-8-8H17.6a16 16 0 00-16 16v314.9a16 16 0 0016 16H224a8 8 0 008-8zM67.8 185h215c4.4 0 8-3.6 8-8s-3.6-8-8-8h-215c-4.4 0-8 3.6-8 8s3.5 8 8 8zm0 80h159.8c4.4 0 8-3.6 8-8s-3.6-8-8-8H67.8c-4.4 0-8 3.6-8 8s3.5 8 8 8zm312.9-48a8 8 0 00-8-8h-305c-4.4 0-8 3.6-8 8s3.6 8 8 8h305a8 8 0 008-8zm-92.3 120a8 8 0 00-8-8H67.8c-4.4 0-8 3.6-8 8s3.6 8 8 8h212.7a8 8 0 007.9-8zm40-40a8 8 0 00-8-8H67.8c-4.4 0-8 3.6-8 8s3.6 8 8 8h252.7a8 8 0 007.9-8z"/>
	</symbol>
	<symbol id="cati" viewBox="0 0 603.1 463.2">
		<path d="M123.3 26.9a231.6 231.6 0 01186.6-13.4c-.6 1.9-2.4 2.9-3.7 4.1l-78.3 70c-1.8 1.4-3.2 3.6-5.5 4A140.1 140.1 0 00154 348.5a140.5 140.5 0 0082.8 23.5c10.4-.2 20.6-2.3 30.8-4.3-12.2 31.8-24.4 63.7-36.3 95.6A231.1 231.1 0 010 224.4 231.3 231.3 0 01123.3 27z"/><path d="M336.4 15c1.1-1.2 3-.7 4.5-.8h262.2v60.1h-79.2c-3.3 0-6.5 0-9.8.3v171.8c-.1 25.4.3 50.9-.2 76.3C485.6 252 458 181 430 110.4c-.7-1.6-1.7-3.2-1.6-5V74.6c-4.8-.5-9.6-.2-14.4-.3-46.8 0-93.5 0-140.2.2.7-1 1.3-2.1 2.3-3l60.4-56.4z"/><path d="M533 93.5c23.3-.3 46.7 0 70-.1v357.2h-39.9c-9.7-23.3-19.8-46.5-29.6-69.8-1.2-3-.6-6.2-.7-9.3v-182c.1-32-.2-64 .2-96zM394.2 192.7l1.7-3.7c8.5 22.9 17 45.8 25.7 68.6 1.8 5.1 4 10 5.4 15.3h-61.2c6.8-27.6 18.6-53.6 28.4-80.2zM345.7 325.9c32.5-.1 65 0 97.4 0a231.8 231.8 0 01-145.3 127.9c15.8-42.7 32-85.3 48-128z"/>
	</symbol>
	<symbol id="big-arrow" viewBox="0 0 210 275"><path d="M170 163c8-28-7 1 8 3 14 2 3-29 6-10 1 10 15 13 21 6" fill="none"/><path d="M50 55c-24 60-48 184 55 152 31-9 25-13 55-17l-52 25C-8 260 7 110 50 55z"/><path d="M139 162c31 8 22 7 47 5 18-1-11 34-13 37-17 29-12 20-20 38-6-13 9-45 22-63-14-1-20-7-36-17zm47 16h1z"/>
	</symbol>
</svg>