<svg xmlns="http://www.w3.org/2000/svg" width="100%" height="100%"><linearGradient id="a" gradientUnits="userSpaceOnUse" x1="-207.29" y1="270.96" x2="1991.93" y2="270.96"><stop offset="0" stop-color="#008CB5"/><stop offset="1" stop-color="#008CB5" stop-opacity="0"/></linearGradient><path fill="url(#a)" d="M-206.08 515.81s217.2-66 453.86 3l.05.02c118.72 34.6 243.63 53.15 366.84 35.88 136.42-19.11 258.88-65.22 397.7-35.33 107.95 23.24 196.92 83.71 311.5 53.5 122.89-32.41 228.99-83.69 359.17-76.46 111.27 6.18 199.05 51.05 308.89 10.39V-39.25H-207.3l1.2 555.06z"><animateTransform attributeName="transform" attributeType="XML" type="translate" dur="25" values="150,0;-150,0;150,0;" repeatCount="indefinite"/></path><linearGradient id="b" gradientUnits="userSpaceOnUse" x1="-306.3" y1="246.95" x2="1892.92" y2="246.95"><stop offset="0" stop-color="#008CB5"/><stop offset="1" stop-color="#008CB5" stop-opacity="0"/></linearGradient><path opacity="1" fill="url(#b)" d="M-305.1 491.8s217.21-66 453.87 3l.05.02c118.72 34.61 243.63 53.15 366.84 35.89 136.42-19.11 258.88-65.22 397.7-35.33 107.95 23.23 196.92 83.7 311.5 53.5 122.89-32.41 228.99-83.69 359.17-76.46 111.27 6.17 199.05 51.05 308.89 10.39V-63.25H-306.3l1.2 555.06z"><animateTransform attributeName="transform" attributeType="XML" type="translate" dur="20" values="150,0;-150,0;150,0;" repeatCount="indefinite"/></path><g><linearGradient id="c" gradientUnits="userSpaceOnUse" x1="-107.07" y1="237.95" x2="2090.94" y2="237.95"><stop offset="0" stop-color="#008CB5"/><stop offset="1" stop-color="#008CB5" stop-opacity="0"/></linearGradient><path opacity="1" fill="url(#c)" d="M-107.07 466.23s217.2-61.54 453.86 2.8l.05.01c118.72 32.27 243.63 49.55 366.84 33.46 136.42-17.82 258.88-60.8 397.7-32.94 107.95 21.66 196.92 78.04 311.5 49.87 122.89-30.21 228.99-78.01 359.17-71.28 111.27 5.76 199.05 47.6 308.89 9.69V-51.25l-2194.28.1-3.73 517.38z"><animateTransform attributeName="transform" attributeType="XML" type="translate" dur="15" values="50,0;-50,0;50,0;" repeatCount="indefinite"/></path></g></svg>