<?xml version="1.0" encoding="UTF-8" ?>
<!DOCTYPE svg PUBLIC "-//W3C//DTD SVG 1.1//EN" "http://www.w3.org/Graphics/SVG/1.1/DTD/svg11.dtd">
<svg width="625pt" height="481pt" viewBox="0 0 625 481" version="1.1" xmlns="http://www.w3.org/2000/svg">
<g id="#ffffffff">
</g>
<g id="#708391ff">
<path fill="#708391" opacity="1.00" d=" M 158.14 27.24 C 210.52 5.96 270.66 5.06 323.78 24.32 C 294.94 49.95 266.20 75.70 237.43 101.41 C 236.54 102.36 235.20 102.32 234.02 102.45 C 206.96 104.37 180.56 114.51 159.13 131.15 C 134.37 150.08 116.29 177.54 108.77 207.79 C 102.84 231.26 103.05 256.27 109.54 279.59 C 118.80 313.70 141.67 343.79 171.89 362.08 C 204.03 381.83 244.22 387.42 280.66 377.86 C 268.85 409.95 256.25 441.77 244.41 473.86 C 188.06 474.08 131.99 452.65 90.17 414.88 C 65.28 392.50 45.15 364.79 31.91 334.03 C 15.10 295.22 9.31 251.74 15.29 209.87 C 20.79 170.24 36.79 132.10 61.36 100.50 C 86.43 68.15 120.11 42.45 158.14 27.24 Z" />
<path fill="#708391" opacity="1.00" d=" M 408.69 199.68 C 409.19 200.39 409.60 201.15 409.94 201.95 C 420.10 229.17 430.33 256.36 440.54 283.56 C 419.98 283.62 399.41 283.58 378.85 283.58 C 385.95 254.67 398.44 227.52 408.69 199.68 Z" />
<path fill="#708391" opacity="1.00" d=" M 358.77 336.39 C 391.31 336.22 423.86 336.34 456.41 336.33 C 429.72 397.61 374.80 445.64 310.68 464.38 C 326.63 421.68 342.81 379.09 358.77 336.39 Z" />
</g>
<g id="#018cb5ff">
<path fill="#018cb5" opacity="1.00" d=" M 286.43 84.69 C 307.92 64.75 329.19 44.58 350.76 24.74 C 439.22 24.82 527.68 24.73 616.15 24.79 C 616.21 44.77 616.22 64.76 616.14 84.74 C 586.54 84.75 556.94 84.81 527.35 84.71 C 526.97 167.63 527.41 250.56 527.13 333.48 C 498.96 262.66 471.13 191.68 443.08 120.81 C 442.40 119.29 441.37 117.81 441.48 116.06 C 441.44 105.63 441.51 95.19 441.43 84.75 C 389.76 84.72 338.09 84.85 286.43 84.69 Z" />
<path fill="#018cb5" opacity="1.00" d=" M 546.20 104.17 C 569.54 104.21 592.87 104.12 616.20 104.22 C 616.15 223.21 616.23 342.19 616.16 461.18 C 602.96 461.27 589.75 461.13 576.55 461.26 C 568.39 442.71 560.61 423.97 552.65 405.33 C 550.55 399.90 547.47 394.72 546.21 389.03 C 546.21 294.08 546.22 199.13 546.20 104.17 Z" />
</g>
</svg>
